<svg width="59" height="60" viewBox="0 0 59 60" fill="none" xmlns="http://www.w3.org/2000/svg">
<path d="M25.3208 52.125H12.2917C10.9877 52.125 9.73711 51.607 8.81506 50.6849C7.893 49.7629 7.375 48.5123 7.375 47.2083V12.7917C7.375 11.4877 7.893 10.2371 8.81506 9.31506C9.73711 8.393 10.9877 7.875 12.2917 7.875H46.7083C48.0123 7.875 49.2629 8.393 50.1849 9.31506C51.107 10.2371 51.625 11.4877 51.625 12.7917V37.375L44.0042 29.7542C43.0791 28.8475 41.8335 28.3425 40.5382 28.3489C39.2429 28.3554 38.0024 28.8727 37.0864 29.7886L14.75 52.125" stroke="black" stroke-width="2" stroke-linecap="round" stroke-linejoin="round"/>
<path d="M34.4166 48.4375L41.7916 41.0625L49.1666 48.4375" stroke="black" stroke-width="2" stroke-linecap="round" stroke-linejoin="round"/>
<path d="M41.7916 54.5833V41.0625" stroke="black" stroke-width="2" stroke-linecap="round" stroke-linejoin="round"/>
<path d="M22.125 27.5416C24.8404 27.5416 27.0417 25.3404 27.0417 22.625C27.0417 19.9096 24.8404 17.7083 22.125 17.7083C19.4096 17.7083 17.2084 19.9096 17.2084 22.625C17.2084 25.3404 19.4096 27.5416 22.125 27.5416Z" stroke="black" stroke-width="2" stroke-linecap="round" stroke-linejoin="round"/>
</svg>
